<svg width="251" height="26" viewBox="0 0 251 26" fill="none" xmlns="http://www.w3.org/2000/svg">
<path d="M6.79244 1C6.47127 1.00063 6.15603 1.08664 5.87904 1.24921C5.60205 1.41178 5.37326 1.64507 5.21611 1.92517C5.05896 2.20528 4.9791 2.52213 4.98472 2.84325C4.99034 3.16438 5.08123 3.47824 5.24808 3.75267L17.929 24.5857C18.049 24.7961 18.21 24.9803 18.4024 25.1275C18.5948 25.2746 18.8147 25.3817 19.0492 25.4423C19.2837 25.5029 19.528 25.5159 19.7676 25.4805C20.0073 25.4451 20.2373 25.362 20.4443 25.2361C20.6512 25.1103 20.8308 24.9441 20.9724 24.7476C21.1141 24.5511 21.2148 24.3282 21.2688 24.0921C21.3228 23.856 21.3289 23.6114 21.2867 23.3729C21.2445 23.1344 21.1549 22.9067 21.0232 22.7034L8.34224 1.87046C8.18046 1.60445 7.95286 1.38461 7.68141 1.23214C7.40995 1.07967 7.10379 0.999724 6.79244 1ZM25.6689 5.07602C25.9872 4.77365 26.1895 4.36943 26.2409 3.93348C26.2922 3.49753 26.1894 3.05734 25.9502 2.68928C25.799 2.47081 25.6016 2.28829 25.3719 2.15468C25.1423 2.02107 24.8861 1.93965 24.6214 1.9162C24.3571 1.89219 24.0908 1.9267 23.8413 2.01726C23.5918 2.10782 23.3654 2.25222 23.178 2.44019L20.5155 5.10274C18.5287 7.09093 18.5287 10.3128 20.5155 12.2992L23.178 14.9622C23.3687 15.1539 23.5999 15.3004 23.8546 15.391C24.1093 15.4816 24.3811 15.514 24.6499 15.4857C24.9189 15.4577 25.1782 15.3697 25.4088 15.2283C25.6393 15.0868 25.8351 14.8954 25.9819 14.6683C26.2069 14.3118 26.3026 13.8888 26.2531 13.4702C26.2035 13.0515 26.0117 12.6626 25.7097 12.3685L23.0739 9.73763V9.73582C22.7998 9.46115 22.6459 9.08898 22.6459 8.70096C22.6459 8.31295 22.7998 7.94077 23.0739 7.66611L25.6689 5.07602ZM0.596891 21.833C0.278672 22.1354 0.076329 22.5396 0.0249579 22.9755C-0.0264132 23.4115 0.0764286 23.8517 0.315646 24.2197C0.466874 24.4381 0.664315 24.6206 0.893959 24.7541C1.1236 24.8876 1.37982 24.969 1.64443 24.9924C1.9087 25.0164 2.17502 24.982 2.42448 24.8915C2.67394 24.801 2.90041 24.6567 3.08779 24.4688L5.75034 21.8063C7.73717 19.8181 7.73717 16.5962 5.75034 14.6098L3.08779 11.9468C2.89715 11.7551 2.66598 11.6086 2.41126 11.518C2.15655 11.4274 1.88477 11.395 1.6159 11.4233C1.34689 11.4513 1.08759 11.5393 0.857081 11.6808C0.626572 11.8222 0.430721 12.0136 0.283944 12.2408C0.0589428 12.5973 -0.0367938 13.0202 0.0127538 13.4389C0.0623015 13.8575 0.254127 14.2464 0.556131 14.5405L3.19196 17.1714V17.1732C3.46603 17.4479 3.61995 17.82 3.61995 18.2081C3.61995 18.5961 3.46603 18.9682 3.19196 19.2429L0.596891 21.833Z" fill="#84DE3F"/>
<path d="M59.9688 16.375C59.875 17.9167 59.4531 19.2865 58.7031 20.4844C57.9531 21.6823 56.9062 22.6198 55.5625 23.2969C54.2292 23.974 52.625 24.3125 50.75 24.3125C48.7917 24.3125 47.1042 23.8698 45.6875 22.9844C44.2708 22.0885 43.1823 20.8177 42.4219 19.1719C41.6615 17.526 41.2812 15.5781 41.2812 13.3281V11.9375C41.2812 9.67708 41.6719 7.72396 42.4531 6.07812C43.2448 4.43229 44.349 3.16146 45.7656 2.26562C47.1823 1.36979 48.8542 0.921875 50.7812 0.921875C52.6979 0.921875 54.3125 1.27604 55.625 1.98438C56.9479 2.68229 57.9688 3.64062 58.6875 4.85938C59.4167 6.07812 59.8542 7.46875 60 9.03125H55.0938C55 7.69792 54.6354 6.6875 54 6C53.375 5.30208 52.3021 4.95312 50.7812 4.95312C49.7708 4.95312 48.9323 5.19792 48.2656 5.6875C47.599 6.17708 47.099 6.9375 46.7656 7.96875C46.4323 8.98958 46.2656 10.3021 46.2656 11.9062V13.3281C46.2656 14.901 46.4115 16.2031 46.7031 17.2344C47.0052 18.2656 47.4844 19.0365 48.1406 19.5469C48.7969 20.0469 49.6667 20.2969 50.75 20.2969C51.6979 20.2969 52.4792 20.1562 53.0938 19.875C53.7083 19.5833 54.1771 19.1458 54.5 18.5625C54.8229 17.9792 55.0156 17.25 55.0781 16.375H59.9688ZM72.0906 11.3438L76.6688 1.25H82.0125L74.5906 15.7656V24H69.6063V15.7656L62.1688 1.25H67.5281L72.0906 11.3438ZM88.4156 14.1562L88.3844 10.7344H93.2438C94.4833 10.7344 95.4 10.5052 95.9938 10.0469C96.5875 9.57812 96.8844 8.90625 96.8844 8.03125C96.8844 7.03125 96.5927 6.3125 96.0094 5.875C95.426 5.4375 94.5042 5.21875 93.2438 5.21875H90.1188V24H85.1969V1.25H93.2438C95.9208 1.25 98.0146 1.76042 99.525 2.78125C101.035 3.80208 101.791 5.375 101.791 7.5C101.791 8.42708 101.577 9.29688 101.15 10.1094C100.733 10.9115 100.067 11.5625 99.15 12.0625C98.2333 12.5625 97.0406 12.8281 95.5719 12.8594L94.1969 14.1562H88.4156ZM87.0719 24L88.9781 20.0469H93.9938C95.1708 20.0469 96.0302 19.7812 96.5719 19.25C97.1135 18.7083 97.3844 18.0365 97.3844 17.2344C97.3844 16.599 97.275 16.0521 97.0563 15.5938C96.8375 15.1354 96.4938 14.7812 96.025 14.5312C95.5667 14.2812 94.9573 14.1562 94.1969 14.1562H89.6344L89.6656 10.7344H95.3063L96.4469 12.0938C97.8531 12.0625 98.9833 12.2969 99.8375 12.7969C100.692 13.2865 101.311 13.9323 101.697 14.7344C102.082 15.5365 102.275 16.3854 102.275 17.2812C102.275 19.5 101.561 21.1771 100.134 22.3125C98.7073 23.4375 96.6604 24 93.9938 24H87.0719ZM122.256 24H110.241V20.0469H122.256V24ZM111.819 24H106.897V1.25H111.819V24ZM120.694 14.2188H110.241V10.3906H120.694V14.2188ZM122.241 5.21875H110.241V1.25H122.241V5.21875ZM134.675 1.25C136.435 1.25 137.946 1.51562 139.206 2.04688C140.477 2.56771 141.451 3.33854 142.128 4.35938C142.805 5.36979 143.144 6.625 143.144 8.125C143.144 9.375 142.935 10.4375 142.519 11.3125C142.113 12.1875 141.54 12.9115 140.8 13.4844C140.06 14.0573 139.191 14.5208 138.191 14.875L136.628 15.7656H129.331L129.3 11.7969H134.659C135.451 11.7969 136.113 11.6667 136.644 11.4062C137.175 11.1354 137.571 10.7552 137.831 10.2656C138.092 9.77604 138.222 9.19792 138.222 8.53125C138.222 7.51042 137.93 6.70312 137.347 6.10938C136.774 5.51562 135.883 5.21875 134.675 5.21875H131.019V24H126.113V1.25H134.675ZM133.581 13.8906L138.769 13.8594L143.972 23.7656V24H138.706L133.581 13.8906ZM165.812 16.375C165.719 17.9167 165.297 19.2865 164.547 20.4844C163.797 21.6823 162.75 22.6198 161.406 23.2969C160.073 23.974 158.469 24.3125 156.594 24.3125C154.635 24.3125 152.948 23.8698 151.531 22.9844C150.115 22.0885 149.026 20.8177 148.266 19.1719C147.505 17.526 147.125 15.5781 147.125 13.3281V11.9375C147.125 9.67708 147.516 7.72396 148.297 6.07812C149.089 4.43229 150.193 3.16146 151.609 2.26562C153.026 1.36979 154.698 0.921875 156.625 0.921875C158.542 0.921875 160.156 1.27604 161.469 1.98438C162.792 2.68229 163.812 3.64062 164.531 4.85938C165.26 6.07812 165.698 7.46875 165.844 9.03125H160.938C160.844 7.69792 160.479 6.6875 159.844 6C159.219 5.30208 158.146 4.95312 156.625 4.95312C155.615 4.95312 154.776 5.19792 154.109 5.6875C153.443 6.17708 152.943 6.9375 152.609 7.96875C152.276 8.98958 152.109 10.3021 152.109 11.9062V13.3281C152.109 14.901 152.255 16.2031 152.547 17.2344C152.849 18.2656 153.328 19.0365 153.984 19.5469C154.641 20.0469 155.51 20.2969 156.594 20.2969C157.542 20.2969 158.323 20.1562 158.938 19.875C159.552 19.5833 160.021 19.1458 160.344 18.5625C160.667 17.9792 160.859 17.25 160.922 16.375H165.812ZM178.544 1.25C180.304 1.25 181.815 1.51562 183.075 2.04688C184.346 2.56771 185.32 3.33854 185.997 4.35938C186.674 5.36979 187.012 6.625 187.012 8.125C187.012 9.375 186.804 10.4375 186.387 11.3125C185.981 12.1875 185.408 12.9115 184.669 13.4844C183.929 14.0573 183.059 14.5208 182.059 14.875L180.497 15.7656H173.2L173.169 11.7969H178.528C179.32 11.7969 179.981 11.6667 180.512 11.4062C181.044 11.1354 181.44 10.7552 181.7 10.2656C181.96 9.77604 182.091 9.19792 182.091 8.53125C182.091 7.51042 181.799 6.70312 181.216 6.10938C180.643 5.51562 179.752 5.21875 178.544 5.21875H174.887V24H169.981V1.25H178.544ZM177.45 13.8906L182.637 13.8594L187.841 23.7656V24H182.575L177.45 13.8906ZM195.15 24H189.916L198.369 1.25H201.681L201.212 5.5625L195.15 24ZM200.103 5.5625L199.587 1.25H202.916L211.416 24H206.181L200.103 5.5625ZM206.025 19.4688H193.962V15.5H206.025V19.4688ZM219.569 24H214.647V1.25H219.569V24ZM228.491 14.7969H218.256V10.8438H228.491V14.7969ZM229.569 5.21875H218.256V1.25H229.569V5.21875ZM244.081 24H239.175V1.25H244.081V24ZM250.988 5.21875H232.363V1.25H250.988V5.21875Z" fill="#84DE3F"/>
</svg>
